# xmcd
#
# Track frame offsets:
#	150
#	20096
#	42871
#	70903
#	84357
#	103863
#	119046
#	136972
#	159108
#	186640
#	216608
#	251831
#	282865
#	303480
#	329453
#
# Disc length: 4685 seconds
#
# Revision: 0
# Processed by: cddbd v1.5.2PL0 Copyright (c) Steve Scherf et al.
# Submitted via: EZCDAudioConverter 1.0.4.1
#
DISCID=e8124b0f
DTITLE=Whiteout - The Official Compilation (2012) - Various Artists
DYEAR=2012
DGENRE=
TTITLE0=Chicane - Offshore
TTITLE1=Lovetone and Turismo - Can You Feel Me
TTITLE2=Faithless - Insomnia (Monster Mix)
TTITLE3=Lovetone - Taurus
TTITLE4=Antillas Feat Fiora - Damaged (JS16 and Fiora Alien Abduction Mix)
TTITLE5=Alex Kunnari - Taste The Sun
TTITLE6=Tristan Garner - Punx
TTITLE7=Orion and J.Shore - White Birds (Tom Fall Remix)
TTITLE8=Super8 and Tab - Awakenings
TTITLE9=Lowland and Orkidea - Blackbird
TTITLE10=Ralphie B - Massive (James Dymond Rework)
TTITLE11=Planet Perfecto Knights - Resurection (Paul Oakenfold Full On Fluoro 
TTITLE11=Remix)
TTITLE12=Xilent - Skyward II
TTITLE13=Skylight - Devil Down (Instrumental)
TTITLE14=Orkidea - Unity (Orion and J.Shore Remix Whiteout Edit)
EXTD=
EXTT0=
EXTT1=
EXTT2=
EXTT3=
EXTT4=
EXTT5=
EXTT6=
EXTT7=
EXTT8=
EXTT9=
EXTT10=
EXTT11=
EXTT12=
EXTT13=
EXTT14=
PLAYORDER=
